<svg xmlns="http://www.w3.org/2000/svg" xml:space="preserve" width="256" height="191"><g fill="#D40000" class="layer"><path d="M257 77c-3 1-6 1-8 3l-61 30-14 6c-4 1-6 4-6 7l-2 24-4 39-19-15-29-23h-5l-21 10-68 31c-2 0-3 1-4 3h-5c20-26 42-50 63-75L42 97l1-1 60 17-20 24c9-3 18-7 26-12 3-1 5-1 8 1l18 14 12 9 3-42 36-16v-1l-33-2 3-32-28 31-5 1-33-3-30-2-47-4-9-3-3-2v-3l41-1 72-1 6-2 8-10 37-42 11-14h4l-1 6-3 44-2 18h83v8z"/><path d="m57 91 33 5 22 1L4 82v-2l124 13v2l-23 13h-5l-24-9c-9-4-18-5-28-7l-4-2v-1l13 2z"/></g></svg>